<?xml version="1.0" standalone="no"?>
<!DOCTYPE svg PUBLIC "-//W3C//DTD SVG 1.1//EN" "http://www.w3.org/Graphics/SVG/1.1/DTD/svg11.dtd" >
<svg xmlns="http://www.w3.org/2000/svg">
<metadata>Generated by IcoMoon</metadata>
<defs>
<font id="bizmericon" horiz-adv-x="1024">
<font-face units-per-em="1024" ascent="960" descent="-64" />
<missing-glyph horiz-adv-x="1024" />
<glyph unicode="&#x20;" horiz-adv-x="512" d="" />
<glyph unicode="&#x31;" glyph-name="activo" d="M513.27 857.641c-225.188 0-409.62-184.433-409.62-409.62s184.433-409.62 409.62-409.62c225.188 0 409.62 184.433 409.62 409.62s-184.433 409.62-409.62 409.62v0zM431.247 243.21l-204.81 204.81 57.446 57.395 147.364-147.62 311.419 311.419 57.446-57.395-368.865-368.609z" />
<glyph unicode="&#x32;" glyph-name="inactivo" d="M512 853.197c-222.761 0-405.197-182.446-405.197-405.197 0-222.761 182.446-405.207 405.197-405.207 222.761 0 405.197 182.446 405.197 405.207s-182.436 405.197-405.197 405.197v0zM714.598 302.182l-56.781-56.781-145.818 145.818-145.818-145.818-56.781 56.781 145.818 145.818-145.818 145.818 56.781 56.781 145.818-145.818 145.818 145.828 56.781-56.781-145.818-145.828 145.818-145.818z" />
<glyph unicode="&#x33;" glyph-name="ver" d="M512.655 790.897c-227.748 0-423.721-141.199-501.094-341.617 77.373-200.417 273.357-341.617 501.094-341.617 227.748 0 423.434 141.199 501.094 341.617-77.66 200.417-273.347 341.617-501.094 341.617zM512.655 221.532c-127.652 0-227.748 100.321-227.748 227.748s100.096 227.748 227.748 227.748c127.427 0 227.748-100.321 227.748-227.748s-100.321-227.748-227.748-227.748zM512.655 585.81c-77.435 0-136.817-59.156-136.817-136.53s59.382-136.53 136.817-136.53c77.384 0 136.53 59.156 136.53 136.53s-59.156 136.53-136.53 136.53z" />
<glyph unicode="&#x34;" glyph-name="editar" d="M102.052 212.070v-173.302h173.312l501.903 506.286-173.312 173.363zM909.568 741.345l-104.929 104.929c-18.248 18.022-45.619 18.022-63.928 0l-81.951-82.237 173.312-173.302 77.496 86.682c18.248 18.248 18.248 45.681 0 63.928z" />
<glyph unicode="&#x35;" glyph-name="calendario" d="M512 407.409h202.691v-202.691h-202.691v202.691zM795.873 772.209h-40.591v81.183h-81.183v-81.183h-324.209v81.183h-81.172v-81.183h-40.335c-44.749 0-81.172-36.383-81.172-80.927v-567.491c0-44.749 36.434-81.183 81.172-81.183h567.491c44.544 0 80.927 36.434 80.927 81.183v567.491c0 44.544-36.393 80.927-80.927 80.927zM795.873 123.791h-567.491v445.727h567.491v-445.727z" />
<glyph unicode="&#x36;" glyph-name="mover" d="M407.675 655.36c14.223 0 25.764 11.52 25.764 25.764 0 14.213-11.54 25.764-25.764 25.764h-128.072c-7.209 0-13.67-2.97-18.35-7.752-4.977-4.229-8.141-10.394-8.141-18.012v-128.799c0-14.234 11.53-25.764 25.764-25.764 14.223 0 25.764 11.52 25.764 25.764l-0.584 66.089 123.105-123.085 36.424 36.424-123.617 123.607h67.707zM427.162 403.241l-123.105-123.085 0.584 66.089c0 14.213-11.54 25.764-25.764 25.764s-25.764-11.551-25.764-25.764v-128.799c0-7.649 3.154-13.783 8.141-18.012 4.669-4.782 11.141-7.752 18.35-7.752h128.072c14.223 0 25.764 11.52 25.764 25.764 0 14.213-11.54 25.764-25.764 25.764h-67.707l123.617 123.617-36.424 36.413zM741.827 706.877h-128.072c-14.223 0-25.764-11.551-25.764-25.764 0-14.234 11.53-25.764 25.764-25.764h67.707l-123.617-123.607 36.424-36.424 123.105 123.085-0.573-66.089c0-14.234 11.53-25.764 25.764-25.764 14.223 0 25.764 11.52 25.764 25.764v128.809c0 7.619-3.154 13.783-8.141 18.012-4.69 4.772-11.151 7.741-18.36 7.741zM819.835 861.44h-618.24c-56.904 0-103.045-46.131-103.045-103.045v-618.24c0-56.904 46.131-103.045 103.045-103.045h618.24c56.904 0 103.045 46.131 103.045 103.045v618.24c0 56.914-46.141 103.045-103.045 103.045zM871.363 140.165c0-28.457-23.071-51.517-51.517-51.517h-618.25c-28.457 0-51.517 23.071-51.517 51.517v618.23c0 28.457 23.071 51.517 51.517 51.517h618.24c28.457 0 51.517-23.071 51.517-51.517v-618.23zM742.564 371.999c-14.223 0-25.764-11.551-25.764-25.764l0.584-66.089-123.105 123.085-36.424-36.424 123.607-123.607h-67.707c-14.223 0-25.764-11.551-25.764-25.764 0-14.234 11.53-25.764 25.764-25.764h128.072c7.209 0 13.681 2.97 18.35 7.752 4.977 4.229 8.141 10.363 8.141 18.012v128.799c0 14.223-11.53 25.764-25.754 25.764z" />
<glyph unicode="&#x37;" glyph-name="quitar" d="M637.061 575.611c-9.974 9.974-26.122 9.974-36.096 0l-90.245-90.235-90.245 90.235c-9.964 9.974-26.122 9.974-36.096 0s-9.974-26.122 0-36.096l90.245-90.235-90.245-90.266c-9.974-9.943-9.974-26.122 0-36.096s26.132-9.974 36.096 0l90.245 90.266 90.245-90.266c9.974-9.974 26.122-9.974 36.096 0s9.974 26.153 0 36.096l-90.245 90.266 90.245 90.235c9.974 9.974 9.974 26.132 0 36.096zM817.029 857.692h-612.618c-56.381 0-102.103-45.711-102.103-102.103v-612.618c0-56.381 45.722-102.103 102.103-102.103h612.618c56.392 0 102.103 45.722 102.103 102.103v612.618c0 56.392-45.722 102.103-102.103 102.103zM868.076 142.971c0-28.191-22.856-51.057-51.057-51.057h-612.608c-28.191 0-51.046 22.856-51.046 51.057v612.618c0 28.191 22.856 51.057 51.046 51.057h612.618c28.191 0 51.057-22.856 51.057-51.057v-612.618z" />
<glyph unicode="&#x61;" glyph-name="nombre" d="M511.836 449.444c113.111 0 205.681 92.242 205.681 205.363 0 112.855-92.57 205.363-205.681 205.363-112.794 0-205.363-92.508-205.363-205.363 0.010-113.121 92.57-205.363 205.363-205.363zM511.836 346.604c-138.66 0-410.726-66.703-410.726-205.363v-102.84h821.76v102.84c0.010 138.66-272.302 205.363-411.034 205.363z" />
<glyph unicode="&#x62;" glyph-name="contrasena" d="M510.597 233.452c43.049 0 78.1 35.246 78.1 78.1s-35.052 77.855-78.1 77.855c-42.803 0-77.855-35-77.855-77.855s35.052-78.1 77.855-78.1v0zM744.643 584.407h-39.045v78.1c0 109.107-85.658 195-195 195-109.097 0-195-85.893-195-195h74.291c0 66.253 54.456 120.904 120.709 120.904 66.499 0 120.955-54.651 120.955-120.904v-78.1h-354.765c-43.049 0-78.1-35-78.1-77.855v-390.001c0-42.854 35.052-78.1 78.1-78.1h467.855c42.854 0 78.1 35.246 78.1 78.1v390.001c0 42.854-35.246 77.855-78.1 77.855v0zM744.643 116.552h-467.855v390.001h467.855v-390.001z" />
<glyph unicode="&#x63;" glyph-name="email" d="M898.202 832.604h-766.351c-52.879 0-95.939-43.059-95.939-95.949v-574.761c0-52.644 43.059-95.939 95.939-95.939h766.341c52.879 0 95.939 43.295 95.939 95.939v574.761c0.010 52.89-43.049 95.949-95.928 95.949v0zM898.202 641.014l-383.181-239.555-383.171 239.555v95.642l383.171-239.555 383.171 239.555v-95.642z" />
<glyph unicode="&#x64;" glyph-name="url" d="M510.72 894.72c-244.879 0-445.44-200.561-445.44-445.44s200.561-445.44 445.44-445.44c244.879 0 445.44 200.561 445.44 445.44s-200.561 445.44-445.44 445.44v0zM818.074 627.405h-129.229c-13.251 57.856-35.635 107.018-62.413 160.307 80.282-31.078 151.603-84.582 191.642-160.307v0zM510.72 805.519c35.686-53.289 66.765-111.36 84.634-178.125h-169.267c17.869 62.423 48.947 124.836 84.634 178.125v0zM167.731 360.079c-8.909 26.778-13.251 58.071-13.251 89.201s4.342 62.413 13.251 89.201h151.398c-4.403-31.345-4.403-58.071-4.403-89.201s4.403-57.856 4.403-89.201h-151.398zM203.366 271.165h129.229c13.251-57.856 35.635-107.018 62.413-160.307-80.282 31.068-151.603 84.572-191.642 160.307v0zM332.595 627.405h-129.229c44.595 75.725 111.36 129.239 191.652 160.307-26.788-53.299-49.162-102.461-62.423-160.307v0zM510.72 93.041c-35.697 53.289-66.765 111.36-84.634 178.125h169.267c-17.869-62.423-48.947-124.836-84.634-178.125v0zM613.171 360.079h-204.902c-4.567 31.345-8.909 58.071-8.909 89.201s4.342 57.846 8.909 89.201h209.469c4.342-31.345 8.684-58.071 8.684-89.201s-8.684-57.856-13.251-89.201v0zM626.422 110.858c26.778 48.947 49.162 102.451 62.413 160.307h129.239c-40.038-75.735-111.36-129.239-191.652-160.307v0zM706.714 360.079c4.567 31.345 4.567 58.071 4.567 89.201s-4.567 57.846-4.567 89.201h151.337c8.909-26.788 13.476-58.071 13.476-89.201s-4.567-62.423-13.476-89.201h-151.337z" />
<glyph unicode="&#x65;" glyph-name="compania" d="M108.698 851.466h806.922v-100.987h-806.922v100.987zM915.62 700.303h-806.922l-50.493-252.14v-100.987h50.493v-302.633h504.289v302.633h201.656v-302.633h100.987v302.633h50.176v100.987l-50.186 252.14zM512 145.521h-302.633v201.656h302.633v-201.656z" />
<glyph unicode="&#x66;" glyph-name="telefono" d="M265.892 502.743c63.857-127.724 173.353-232.55 300.851-300.913l100.383 100.147c13.558 13.793 31.785 18.289 45.404 9.114 50.299-18.227 104.827-27.116 164.239-27.116 27.116 0 45.353-18.227 45.353-45.629v-155.126c0-27.116-18.237-45.343-45.353-45.343-428.636 0-774.892 346.255-774.892 774.615 0 27.402 18.227 45.629 45.629 45.629h159.57c27.116 0 45.343-18.227 45.343-45.629 0-54.743 9.175-109.271 27.402-164.014 4.669-13.783 0-31.785-9.114-45.578l-104.817-100.157z" />
<glyph unicode="&#x67;" glyph-name="dashboard" d="M412.314 22.344v298.762h199.383v-298.762h248.914v398.449h149.228l-497.828 447.99-497.828-447.99h149.228v-398.449h248.904z" />
<glyph unicode="&#x68;" glyph-name="campanas" d="M856.897 468.49h-61.348v163.676c0 44.975-36.997 81.962-81.962 81.962h-163.676v61.348c0 57.354-44.975 102.328-102.328 102.328s-102.328-44.975-102.328-102.328v-61.348h-163.685c-45.175 0-81.962-36.987-81.962-81.962v-155.489h61.348c61.348 0 110.515-49.167 110.515-110.515s-49.167-110.515-110.515-110.515h-61.348v-155.489c0-44.975 36.787-81.962 81.962-81.962h155.489v61.348c0 61.604 49.167 110.562 110.515 110.562s110.515-48.967 110.515-110.562v-61.348h155.489c44.975 0 81.962 36.987 81.962 81.962v163.676h61.348c57.354 0 102.328 44.975 102.328 102.328 0.009 57.354-44.964 102.328-102.319 102.328v0z" />
<glyph unicode="&#x69;" glyph-name="landingpage" d="M865.823 832.614h-707.328c-55.767 0-101.181-45.414-101.181-101.181v-606.147c0-55.521 45.414-101.181 101.181-101.181h707.328c55.521 0 100.864 45.66 100.864 101.181v606.147c0.010 55.777-45.343 101.181-100.864 101.181v0zM613.181 125.286h-454.687v202.056h454.687v-202.056zM613.181 377.928h-454.687v202.045h454.687v-202.045zM865.823 125.286h-202.045v454.687h202.045v-454.687z" />
<glyph unicode="&#x6a;" glyph-name="contactos" d="M693.453 478.74c77.087 0 136.018 58.931 136.018 136.305 0 77.087-58.931 136.018-136.018 136.018s-136.018-58.931-136.018-136.018c0-77.373 58.931-136.305 136.018-136.305v0zM330.547 478.74c77.087 0 136.018 58.931 136.018 136.305 0 77.087-58.931 136.018-136.018 136.018-77.363 0-136.294-58.931-136.294-136.018 0-77.373 58.931-136.305 136.294-136.305v0zM330.547 388.147c-104.366 0-317.747-54.508-317.747-158.874v-113.439h635.218v113.439c0 104.366-213.156 158.874-317.47 158.874v0zM693.453 388.147c-13.496 0-27.228 0-45.435-4.649 54.508-36.361 90.87-90.645 90.87-154.225v-113.439h272.312v113.439c0 104.366-213.381 158.874-317.747 158.874v0z" />
<glyph unicode="&#x6b;" glyph-name="leadnurturing" d="M622.968 477.739c0 67.454-53.985 118.671-118.734 118.671-67.454 0-118.671-53.922-118.671-118.671 0-51.269 32.34-94.436 78.208-110.599l-148.358-393.887h188.884v504.49l-10.829-29.687c-10.766 5.408-21.583 16.164-21.583 29.687 0 16.164 13.469 32.349 32.413 32.349 16.164 0 32.34-13.469 32.34-32.349 0-13.521-8.113-24.279-21.573-29.687l29.687-83.629c45.809 18.878 78.22 62.046 78.22 113.315v0zM776.724 477.739c0 148.369-121.43 272.448-272.491 272.448-148.369 0-272.448-121.376-272.448-272.448 0-116.020 72.863-215.812 175.359-253.57l29.687 83.567c-70.147 26.992-118.714 91.743-118.714 169.942 0 99.855 80.914 183.474 183.463 183.474 99.794 0 183.42-80.976 183.42-183.474 0-78.208-48.577-145.644-118.671-169.942l29.687-83.567c105.16 37.758 180.706 137.552 180.706 253.57v0zM504.235 901.251c-231.988 0-423.511-188.821-423.511-423.511 0-180.771 113.315-334.526 275.144-396.583l29.697 83.629c-126.775 48.577-215.803 169.942-215.803 312.89 0 183.474 151.063 334.548 334.484 334.548 183.463 0 334.526-151.063 334.526-334.548 0-142.949-91.72-264.313-215.803-312.902l29.624-83.629c159.174 59.341 275.217 215.812 275.217 396.583 0 234.704-191.587 423.523-423.575 423.523v0z" />
<glyph unicode="&#x6c;" glyph-name="reportes" d="M555.008 902.052v-136.428c154.696-22.927 273.152-154.921 273.152-314.276 0-40.909-9.165-77.322-22.927-113.787l118.446-68.219c27.372 54.671 40.909 118.456 40.909 186.665 0 232.008-177.562 423.404-409.58 446.044v0zM509.44 132.854c-177.562 0-318.72 141.148-318.72 318.484 0 159.355 118.446 291.348 273.142 314.276v136.438c-232.008-18.207-409.569-214.036-409.569-450.714 0-250.214 204.933-455.148 455.148-455.148 150.252 0 282.245 72.878 368.671 186.665l-118.456 68.27c-59.105-72.704-149.965-118.272-250.214-118.272v0z" />
<glyph unicode="&#x6d;" glyph-name="configuracion" d="M790.968 407.491c0 11.274 3.82 22.405 3.82 37.315s0 26.040-3.82 37.315l78.275 63.314c7.455 7.455 7.455 14.909 3.82 22.405l-74.639 130.447c-3.635 3.676-11.090 7.506-22.364 3.676l-93.174-37.315c-18.586 14.909-40.95 26.184-63.365 37.315l-14.909 97.004c3.82 11.090-7.455 18.545-14.909 18.545h-149.094c-7.455 0-18.545-7.455-18.545-14.909l-14.909-100.639c-22.405-7.496-41.134-22.405-63.365-37.315l-89.549 37.315c-11.090 3.82-18.545 0-25.999-7.496l-74.639-130.447c-3.635-3.676 0-14.961 7.455-22.405l78.275-59.494c0-11.274-3.635-22.405-3.635-37.315s0-26.040 3.635-37.315l-78.275-63.314c-7.455-7.455-7.455-14.909-3.635-22.405l74.455-130.447c3.82-3.676 11.274-7.506 22.364-3.676l93.184 37.315c18.586-14.909 40.95-26.184 63.365-37.315l14.909-97.004c0-7.455 7.455-14.909 18.586-14.909h149.228c7.455 0 18.545 7.455 18.545 14.909l14.909 97.004c22.415 11.131 44.769 22.405 63.365 37.315l93.184-37.315c7.455-3.82 18.729 0 22.364 7.496l74.639 130.447c3.635 7.496 3.635 18.586-3.82 22.405l-85.729 59.494zM515.246 314.307c-70.953 0-130.499 59.679-130.499 130.499s59.546 130.499 130.499 130.499c70.769 0 130.314-59.679 130.314-130.499s-59.546-130.499-130.314-130.499v0z" />
<glyph unicode="&#x6e;" glyph-name="notificaciones" d="M316.875 761.417l-55.451 55.451c-94.882-71.329-158.253-182.042-166.163-308.585h79.25c7.91 106.857 59.306 197.873 142.364 253.135v0zM847.122 508.283h79.25c-7.91 126.534-67.274 237.246-162.308 308.585l-55.508-55.451c79.259-55.262 130.655-146.278 138.566-253.135v0zM768.118 488.349c0 122.725-83.105 221.661-197.873 249.269v27.854c0 31.662-27.854 59.317-59.563 59.317-31.463 0-59.317-27.655-59.317-59.317v-27.854c-114.767-27.597-197.873-126.544-197.873-249.269v-217.559l-79.003-79.25v-39.63h672.612v39.63l-79.003 79.25v217.559zM510.693 33.297h15.878c27.796 3.856 47.54 23.741 55.451 47.54 4.055 7.91 7.91 19.687 7.91 31.709h-158.243c0-43.685 35.565-79.25 79.003-79.25v0z" />
<glyph unicode="&#x6f;" glyph-name="lupa" d="M887.418 134.654l-181.329 178.455c48.678 57.601 75.352 129.701 75.352 204.496 0 176.622-145.912 320.322-325.256 320.322s-325.266-143.71-325.266-320.332c0-176.622 145.912-320.303 325.266-320.303 70.030 0 138.662 22.581 194.637 63.792l182.869-179.949c7.193-7.080 16.74-10.983 26.872-10.983 10.143 0 19.689 3.904 26.863 10.983 7.25 7.127 11.238 16.626 11.238 26.74-0.009 10.132-3.999 19.642-11.248 26.778zM705.239 517.596c0-135.014-111.724-244.856-249.063-244.856-137.32 0-249.044 109.843-249.044 244.856s111.724 244.856 249.044 244.856c137.339 0.009 249.063-109.843 249.063-244.856z" />
<glyph unicode="&#x70;" glyph-name="avatar" d="M510.805 897.625c-246.528 0-448.43-201.902-448.43-448.43s201.902-448.43 448.43-448.43c246.518 0 448.43 201.902 448.43 448.43s-201.912 448.43-448.43 448.43v0zM510.805 763.211c76.177 0 134.413-58.466 134.413-134.7 0-76.177-58.236-134.413-134.413-134.413s-134.413 58.236-134.413 134.413c0 76.234 58.236 134.7 134.413 134.7v0zM510.805 126.213c-112.105 0-210.877 58.466-269.113 143.665 0 89.52 179.317 139.011 269.113 139.011s269.113-49.491 269.113-139.011c-58.236-85.199-157.008-143.665-269.113-143.665v0z" />
<glyph unicode="&#x71;" glyph-name="abajo" d="M767.066 656.647l-257.016-257.361-257.076 257.361-78.307-78.307 335.394-335.394 335.394 335.394-78.377 78.307z" />
<glyph unicode="&#x72;" glyph-name="arriba" d="M256.934 239.353l257.016 257.361 257.076-257.361 78.307 78.307-335.394 335.394-335.394-335.394 78.377-78.307z" />
<glyph unicode="&#x73;" glyph-name="izquierda" d="M655.434 820.675l-372.684-372.675 372.684-372.675 87.023 87.013-285.982 285.661 285.973 285.586-87.013 87.088z" />
<glyph unicode="&#x74;" glyph-name="derecha" d="M282.751 733.586l285.973-285.586-285.973-285.661 87.023-87.013 372.675 372.675-372.675 372.675-87.023-87.088z" />
<glyph unicode="&#x75;" glyph-name="visitas" d="M784.722 858.235h-545.198c-42.988 0-77.988-35-77.988-77.988v-545.188c0-42.793 35-77.742 77.988-77.742h155.74l116.736-116.992 116.982 116.982h155.73c42.793 0 77.742 34.959 77.742 77.742v545.198c0.010 42.988-34.949 77.988-77.732 77.988zM512 729.661c58.368 0 105.155-46.787 105.155-105.155s-46.787-105.144-105.155-105.144-105.155 46.787-105.155 105.155 46.787 105.144 105.155 105.144zM745.728 313.047h-467.456v35c0 77.937 155.976 120.73 233.728 120.73 77.988 0 233.728-42.793 233.728-120.73v-35z" />
<glyph unicode="&#x76;" glyph-name="duracionvisitas" d="M508.14 849.92c-223.068 0-405.76-182.692-405.76-405.76s182.692-405.76 405.76-405.76c223.068 0 405.76 182.692 405.76 405.76s-182.692 405.76-405.76 405.76zM508.14 119.654c-178.534 0-324.506 145.971-324.506 324.506s145.971 324.506 324.506 324.506c178.534 0 324.506-145.971 324.506-324.506s-145.971-324.506-324.506-324.506zM528.292 647.045h-70.871v-256.092h0.983l218.819-130.826 36.372 60.826-185.303 110.787z" />
<glyph unicode="&#x77;" glyph-name="paginasvisitadas" d="M363.51 72.049h291.656v349.696h-291.656v-349.696zM13.455 72.049h291.656v758.159h-291.656v-758.159zM713.574 72.049h291.656v349.696h-291.656v-349.696zM363.51 830.208v-350.054h641.71v350.054h-641.71z" />
<glyph unicode="&#x78;" glyph-name="alcance" d="M302.469 857.61v-461.005h125.614v-377.098l293.437 502.968h-167.567l167.567 335.135h-419.052z" />
<glyph unicode="&#x79;" glyph-name="paginasvistas" d="M840.397 228.669c45.292 0 82.545 37.048 82.545 82.289v412.201c0 45.496-37.253 82.545-82.545 82.545h-659.569c-45.292 0-82.289-37.048-82.289-82.545v-412.201c0-45.24 36.997-82.289 82.289-82.289h-164.833v-82.545h989.225v82.545h-164.823zM180.828 723.159h659.569v-412.201h-659.569v412.201z" />
<glyph unicode="&#x7a;" glyph-name="rebote" d="M512 855.921c-224.256 0-407.921-183.665-407.921-407.921s183.665-407.921 407.921-407.921c224.246 0 407.91 183.665 407.91 407.921s-183.665 407.921-407.91 407.921zM185.764 448c0 179.487 146.749 326.226 326.236 326.226 73.472 0 142.817-24.269 199.977-69.294l-456.909-456.909c-45.025 57.16-69.304 126.505-69.304 199.977zM512 121.774c-73.472 0-142.828 24.269-199.977 69.294l456.919 456.919c45.025-57.16 69.294-126.505 69.294-199.977-0.010-179.497-146.749-326.236-326.236-326.236z" />
</font>
</defs>
</svg>
